:FULLY-SPECIFIED
:DEGREES
1767
root 8.30594 16.7654 -2.92877 4582.1 -93.6548 -4565.23
lowerback 1.10984 2.38507 3.49273
upperback 2.22307 3.15992 -0.429617
thorax 1.87645 1.63331 -2.37229
lowerneck -19.1165 0.510438 -2.07769
upperneck 31.7205 0.392209 1.30026
head 14.0053 -0.111665 0.898823
rclavicle -6.36111e-015 8.34896e-015
rhumerus -20.3428 4.45691 -82.9467
rradius 44.3513
rwrist 14.2706
rhand -26.278 -12.1227
rfingers 7.12502
rthumb 0.277272 -42.1022
lclavicle -6.36111e-015 8.34896e-015
lhumerus -36.0012 -0.443222 85.0829
lradius 29.1317
lwrist 3.61774
lhand -22.3398 4.68914
lfingers 7.12502
lthumb 4.0806 34.6298
rfemur -6.88315 2.36653 27.9379
rtibia 20.3039
rfoot -11.4124 -4.42257
rtoes -19.5647
lfemur -43.9438 -0.963603 -15.366
ltibia 15.3638
lfoot -12.2372 8.91979
ltoes -16.6376
1768
root 8.28899 16.7363 -2.91526 4584.98 -93.4956 -4568.13
lowerback 0.945962 2.44368 3.17504
upperback 2.26429 3.23378 -0.520099
thorax 2.00258 1.66822 -2.27818
lowerneck -18.9987 0.512886 -2.02043
upperneck 31.7173 0.32877 1.41227
head 13.979 -0.117886 0.921972
rclavicle -4.45278e-014 -4.77083e-015
rhumerus -20.301 4.62885 -82.9443
rradius 45.3261
rwrist 14.2082
rhand -26.4657 -12.0297
rfingers 7.12502
rthumb 0.0959588 -42.0094
lclavicle -4.45278e-014 -4.77083e-015
lhumerus -36.2085 -0.141912 84.9274
lradius 28.3229
lwrist 3.16722
lhand -22.5028 4.8156
lfingers 7.12502
lthumb 3.92323 34.7592
rfemur -5.59317 2.27643 27.7778
rtibia 19.6897
rfoot -11.1877 -4.19477
rtoes -20.5608
lfemur -43.4334 -1.73308 -14.9657
ltibia 13.197
lfoot -12.8217 9.77661
ltoes -16.0783
1769
root 8.2668 16.6997 -2.906 4588.56 -93.2873 -4571.73
lowerback 0.745137 2.49653 2.67162
upperback 2.30105 3.30128 -0.596772
thorax 2.13203 1.6958 -2.0646
lowerneck -18.9897 0.527132 -1.958
upperneck 31.8365 0.276789 1.52723
head 14.0302 -0.120449 0.948765
rclavicle 4.92986e-014 7.95139e-016
rhumerus -20.1375 4.97955 -82.9665
rradius 46.017
rwrist 13.9234
rhand -26.8385 -12.0118
rfingers 7.12502
rthumb -0.264114 -41.9914
lclavicle 4.92986e-014 7.95139e-016
lhumerus -36.4276 0.0737523 84.7961
lradius 27.6363
lwrist 3.06673
lhand -22.4978 4.99397
lfingers 7.12502
lthumb 3.92807 34.9375
rfemur -4.47367 2.35449 27.5654
rtibia 19.3967
rfoot -10.9492 -4.02259
rtoes -21.2194
lfemur -43.0029 -1.90006 -15.089
ltibia 11.6639
lfoot -12.8521 10.2345
ltoes -16.1187
1770
root 8.23938 16.6569 -2.89512 4592.32 -93.1155 -4575.46
lowerback 0.520078 2.55262 2.22779
upperback 2.26611 3.37687 -0.692802
thorax 2.20567 1.72722 -1.9045
lowerneck -18.9147 0.534591 -1.93079
upperneck 32.0041 0.187061 1.7342
head 14.0889 -0.132856 1.01209
rclavicle -4.13472e-014 3.4191e-014
rhumerus -20.1875 5.11958 -83.0443
rradius 46.7361
rwrist 13.5833
rhand -27.1382 -12.0394
rfingers 7.12502
rthumb -0.553599 -42.0184
lclavicle -4.13472e-014 3.4191e-014
lhumerus -36.693 0.2948 84.6149
lradius 26.922
lwrist 2.70606
lhand -22.4684 5.15954
lfingers 7.12502
lthumb 3.95642 35.1026
rfemur -3.51424 2.33157 27.3355
rtibia 19.3617
rfoot -10.7397 -3.69298
rtoes -22.3207
lfemur -42.8004 -1.533 -15.6656
ltibia 11.0135
lfoot -12.4446 9.97693
ltoes -17.1565
1771
root 8.20567 16.6111 -2.8827 4597.29 -93.168 -4580.4
lowerback 0.187184 2.61845 1.98049
upperback 2.26903 3.46219 -0.726489
thorax 2.38685 1.7675 -1.7829
lowerneck -18.8926 0.538375 -1.88944
upperneck 32.1595 0.10187 1.90649
head 14.1545 -0.145421 1.06035
rclavicle 6.2816e-014 -1.51076e-014
rhumerus -20.1852 5.2683 -83.1255
rradius 47.3674
rwrist 13.3726
rhand -27.4371 -11.9893
rfingers 7.12502
rthumb -0.842261 -41.9674
lclavicle 6.2816e-014 -1.51076e-014
lhumerus -36.8999 0.593146 84.4052
lradius 26.2408
lwrist 2.24328
lhand -22.3274 5.36279
lfingers 7.12502
lthumb 4.09263 35.3032
rfemur -2.61724 2.40928 27.2913
rtibia 19.4409
rfoot -10.4138 -3.24238
rtoes -23.3545
lfemur -43.0429 -0.4827 -16.5238
ltibia 11.6811
lfoot -11.413 8.4851
ltoes -17.7174
1772
root 8.16786 16.5642 -2.86854 4602.14 -93.4697 -4585.25
lowerback -0.0544857 2.69616 2.01924
upperback 2.23685 3.56292 -0.74859
thorax 2.4982 1.82001 -1.81315
lowerneck -18.9252 0.560062 -1.75423
upperneck 32.3363 0.0218613 2.0451
head 14.2425 -0.148659 1.08031
rclavicle 5.64548e-014 -1.59028e-015
rhumerus -20.283 5.46267 -83.3353
rradius 47.9989
rwrist 12.5253
rhand -27.9098 -11.8594
rfingers 7.12502
rthumb -1.2988 -41.8352
lclavicle 5.64548e-014 -1.59028e-015
lhumerus -37.1558 0.655966 84.1996
lradius 25.7374
lwrist 1.97271
lhand -22.0003 5.70091
lfingers 7.12502
lthumb 4.40851 35.635
rfemur -1.74157 2.51385 27.4463
rtibia 19.6034
rfoot -9.92403 -2.64554
rtoes -24.2231
lfemur -43.5906 0.432516 -16.9726
ltibia 13.4492
lfoot -10.1038 6.53543
ltoes -15.9707
1773
root 8.12622 16.5304 -2.85618 4606.16 -93.7872 -4589.29
lowerback -0.305227 2.76598 2.00561
upperback 2.20075 3.65326 -0.748877
thorax 2.60545 1.86592 -1.79122
lowerneck -18.9205 0.58439 -1.61324
upperneck 32.4801 -0.0421849 2.14326
head 14.3076 -0.149563 1.08521
rclavicle 3.18055e-014 -7.15625e-015
rhumerus -20.4366 5.39465 -83.5044
rradius 48.5036
rwrist 12.5824
rhand -28.0316 -11.7833
rfingers 7.12502
rthumb -1.41641 -41.7583
lclavicle 3.18055e-014 -7.15625e-015
lhumerus -37.4566 0.8519 83.9503
lradius 25.3234
lwrist 1.52705
lhand -21.5332 5.99758
lfingers 7.12502
lthumb 4.85952 35.9219
rfemur -1.02414 2.63483 27.6023
rtibia 19.9861
rfoot -9.22923 -2.12306
rtoes -25.5225
lfemur -44.1935 0.908511 -16.9756
ltibia 15.8972
lfoot -7.13035 5.39031
ltoes -13.9953
1774
root 8.09057 16.5031 -2.85249 4609.87 -93.8789 -4593.09
lowerback -0.296737 2.8255 1.62523
upperback 2.14288 3.74045 -0.788462
thorax 2.52264 1.90109 -1.61989
lowerneck -18.8847 0.587251 -1.48848
upperneck 32.5404 -0.134742 2.26367
head 14.3293 -0.159672 1.09617
rclavicle -3.26007e-014 -7.95139e-015
rhumerus -20.6456 5.28755 -83.7098
rradius 48.9587
rwrist 12.6217
rhand -28.2015 -11.8274
rfingers 7.12502
rthumb -1.58053 -41.8013
lclavicle -3.26007e-014 -7.95139e-015
lhumerus -37.736 1.03703 83.708
lradius 24.9193
lwrist 0.906555
lhand -21.2571 6.06939
lfingers 7.12502
lthumb 5.12609 35.9874
rfemur -0.576261 3.15507 27.5818
rtibia 20.9088
rfoot -8.46772 -1.82594
rtoes -26.5836
lfemur -44.7108 1.17997 -17.0171
ltibia 18.49
lfoot -2.62512 5.24815
ltoes -11.6896
1775
root 8.06223 16.4832 -2.83817 4613.43 -93.4353 -4596.81
lowerback -0.0603128 2.77242 0.795991
upperback 2.07563 3.68563 -0.950269
thorax 2.27534 1.85717 -1.34093
lowerneck -18.8772 0.636882 -1.39543
upperneck 32.6835 -0.151326 2.37695
head 14.3926 -0.144187 1.12398
rclavicle 1.43125e-014 5.56597e-015
rhumerus -20.9511 5.172 -83.9533
rradius 49.4486
rwrist 12.598
rhand -28.1802 -11.8729
rfingers 7.12502
rthumb -1.56 -41.847
lclavicle 1.43125e-014 5.56597e-015
lhumerus -37.9996 1.2569 83.5193
lradius 24.5662
lwrist 0.623232
lhand -20.9886 6.24485
lfingers 7.12502
lthumb 5.38538 36.1564
rfemur -0.492092 3.23125 26.9047
rtibia 22.6474
rfoot -7.77576 -1.22342
rtoes -27.6085
lfemur -45.1701 1.82772 -18.1504
ltibia 21.0003
lfoot -0.789805 4.36776
ltoes -11.4519
1776
root 8.03983 16.476 -2.81917 4620.55 -92.2723 -4603.95
lowerback 0.105877 2.66875 -0.680361
upperback 2.01886 3.56496 -1.32516
thorax 2.05316 1.77155 -0.916907
lowerneck -18.9418 0.621598 -1.35384
upperneck 32.7202 -0.245865 2.52873
head 14.4266 -0.158721 1.16274
rclavicle 3.4191e-014 1.11319e-014
rhumerus -21.2278 4.86159 -84.2047
rradius 49.7858
rwrist 12.7887
rhand -28.383 -11.8528
rfingers 7.12502
rthumb -1.75583 -41.8253
lclavicle 3.4191e-014 1.11319e-014
lhumerus -38.057 1.3124 83.4053
lradius 24.1677
lwrist 0.338411
lhand -20.811 6.47123
lfingers 7.12502
lthumb 5.55683 36.3784
rfemur -1.05427 3.01081 25.3949
rtibia 25.177
rfoot -7.02564 -0.54966
rtoes -28.3887
lfemur -45.6428 1.96404 -19.847
ltibia 23.4034
lfoot -0.595606 3.1637
ltoes -5.36262
